<svg width="900" height="1600" viewBox="0 0 900 1600" fill="none" xmlns="http://www.w3.org/2000/svg">
  <rect width="900" height="1600" rx="48" fill="#08131B"/>
  <rect x="40" y="40" width="820" height="470" rx="42" fill="#11232E"/>
  <text x="90" y="135" fill="#E9F4F1" font-size="62" font-family="Arial, Helvetica, sans-serif" font-weight="700">Zip Puzzle Studio</text>
  <text x="90" y="200" fill="#A7C5C1" font-size="34" font-family="Arial, Helvetica, sans-serif">Hard mode turns the board into a freeform strategy maze.</text>
  <rect x="700" y="90" width="110" height="58" rx="29" fill="#18323E" stroke="#7AA7A0" stroke-width="6"/>
  <circle cx="777" cy="119" r="20" fill="#6DE0C8"/>
  <rect x="90" y="285" width="210" height="150" rx="28" fill="#12313B"/>
  <rect x="345" y="285" width="210" height="150" rx="28" fill="#163B37"/>
  <rect x="600" y="285" width="210" height="150" rx="28" fill="#3F2D1F"/>
  <text x="120" y="347" fill="#9BB6B6" font-size="28" font-family="Arial, Helvetica, sans-serif">Step</text>
  <text x="120" y="403" fill="#6DE0C8" font-size="54" font-family="Arial, Helvetica, sans-serif" font-weight="700">14</text>
  <text x="375" y="347" fill="#9BB6B6" font-size="28" font-family="Arial, Helvetica, sans-serif">Next</text>
  <text x="375" y="403" fill="#F4A259" font-size="54" font-family="Arial, Helvetica, sans-serif" font-weight="700">18</text>
  <text x="630" y="347" fill="#9BB6B6" font-size="28" font-family="Arial, Helvetica, sans-serif">Moves Left</text>
  <text x="630" y="403" fill="#6DE0C8" font-size="54" font-family="Arial, Helvetica, sans-serif" font-weight="700">4</text>
  <rect x="90" y="455" width="720" height="22" rx="11" fill="#1E3841"/>
  <rect x="90" y="455" width="292" height="22" rx="11" fill="#6DE0C8"/>
  <rect x="180" y="575" width="540" height="540" rx="34" fill="#10202A"/>
  <g stroke="#26404B" stroke-width="4">
    <line x1="270" y1="575" x2="270" y2="1115"/>
    <line x1="360" y1="575" x2="360" y2="1115"/>
    <line x1="450" y1="575" x2="450" y2="1115"/>
    <line x1="540" y1="575" x2="540" y2="1115"/>
    <line x1="630" y1="575" x2="630" y2="1115"/>
    <line x1="180" y1="665" x2="720" y2="665"/>
    <line x1="180" y1="755" x2="720" y2="755"/>
    <line x1="180" y1="845" x2="720" y2="845"/>
    <line x1="180" y1="935" x2="720" y2="935"/>
    <line x1="180" y1="1025" x2="720" y2="1025"/>
  </g>
  <path d="M225 1065L315 975L405 975L495 885L585 975L675 885L675 795L585 705L495 705" stroke="#6DE0C8" stroke-width="22" stroke-linecap="round" stroke-linejoin="round" opacity="0.95"/>
  <path d="M225 1065L315 975L405 975L495 885L585 975L675 885L675 795L585 705L495 705" stroke="#6DE0C8" stroke-width="36" stroke-linecap="round" stroke-linejoin="round" opacity="0.14"/>
  <g>
    <circle cx="225" cy="1065" r="34" fill="#F4A259"/>
    <text x="212" y="1076" fill="#10212B" font-size="34" font-family="Arial, Helvetica, sans-serif" font-weight="700">1</text>
    <circle cx="495" cy="705" r="34" fill="#F4A259"/>
    <text x="469" y="716" fill="#10212B" font-size="30" font-family="Arial, Helvetica, sans-serif" font-weight="700">18</text>
    <circle cx="225" cy="885" r="34" fill="#F4A259"/>
    <text x="199" y="896" fill="#10212B" font-size="30" font-family="Arial, Helvetica, sans-serif" font-weight="700">24</text>
    <circle cx="405" cy="615" r="34" fill="#F4A259"/>
    <text x="379" y="626" fill="#10212B" font-size="30" font-family="Arial, Helvetica, sans-serif" font-weight="700">27</text>
    <circle cx="585" cy="615" r="34" fill="#F4A259"/>
    <text x="559" y="626" fill="#10212B" font-size="30" font-family="Arial, Helvetica, sans-serif" font-weight="700">33</text>
    <circle cx="675" cy="615" r="34" fill="#F4A259"/>
    <text x="649" y="626" fill="#10212B" font-size="30" font-family="Arial, Helvetica, sans-serif" font-weight="700">36</text>
    <circle cx="675" cy="795" r="34" fill="#6DE0C8" stroke="#0A7B83" stroke-width="4"/>
    <circle cx="585" cy="705" r="18" fill="#6DE0C8" opacity="0.9"/>
    <circle cx="675" cy="885" r="18" fill="#6DE0C8" opacity="0.9"/>
    <circle cx="585" cy="975" r="18" fill="#6DE0C8" opacity="0.9"/>
    <circle cx="495" cy="885" r="18" fill="#6DE0C8" opacity="0.9"/>
    <circle cx="405" cy="975" r="18" fill="#6DE0C8" opacity="0.9"/>
    <circle cx="315" cy="975" r="18" fill="#6DE0C8" opacity="0.9"/>
  </g>
  <rect x="40" y="1230" width="820" height="240" rx="42" fill="#11232E"/>
  <text x="80" y="1310" fill="#E9F4F1" font-size="44" font-family="Arial, Helvetica, sans-serif" font-weight="700">Good path. Keep going.</text>
  <text x="80" y="1372" fill="#A7C5C1" font-size="30" font-family="Arial, Helvetica, sans-serif">Hard mode allows any blank-cell route, but checkpoint 18 must still be reached on time.</text>
  <rect x="80" y="1410" width="190" height="64" rx="24" fill="#0A7B83"/>
  <text x="132" y="1451" fill="#FFFFFF" font-size="28" font-family="Arial, Helvetica, sans-serif" font-weight="700">Reset</text>
  <rect x="295" y="1410" width="190" height="64" rx="24" fill="#1B3C46"/>
  <text x="340" y="1451" fill="#E9F4F1" font-size="28" font-family="Arial, Helvetica, sans-serif" font-weight="700">Hint</text>
  <rect x="510" y="1410" width="250" height="64" rx="24" fill="#11232E" stroke="#3E5964" stroke-width="4"/>
  <text x="547" y="1451" fill="#E9F4F1" font-size="28" font-family="Arial, Helvetica, sans-serif" font-weight="700">New Puzzle</text>
</svg>
